# xmcd CD database file
#
# Track frame offsets:
#	225
#	31927
#	66477
#	85095
#	101814
#	132783
#	155277
#	189373
#	210510
#	225580
#	259467
#	301129
#
# Disc length: 4386 seconds
#
# Revision: 0
# Processed by: cddbd v1.5.2PL0 Copyright (c) Steve Scherf et al.
# Submitted via: CDex 1.70beta2
#
DISCID=9b111f0c
DTITLE=Kurt Buschmann, Sven Selle - You Don't Know What Love Is
DYEAR=1995
DGENRE=Jazz
TTITLE0=You Don't Know What Love Is
TTITLE1=Summertime
TTITLE2=Blue Bossa
TTITLE3=Mr.P.C.
TTITLE4=Yesterdays
TTITLE5=Eleanor Rigby
TTITLE6=My Funny Valentine
TTITLE7=Blue Monk
TTITLE8=St. Thomas
TTITLE9=Sunday By The Blues
TTITLE10=Crystal Silence
TTITLE11=My Foolish Heart
EXTD=YEAR: 1995
EXTT0=
EXTT1=
EXTT2=
EXTT3=
EXTT4=
EXTT5=
EXTT6=
EXTT7=
EXTT8=
EXTT9=
EXTT10=
EXTT11=
PLAYORDER=
